<?xml version="1.0" standalone="no"?>
<!DOCTYPE svg PUBLIC "-//W3C//DTD SVG 20010904//EN"
 "http://www.w3.org/TR/2001/REC-SVG-20010904/DTD/svg10.dtd">
<svg version="1.0" xmlns="http://www.w3.org/2000/svg"
 width="1087.000000pt" height="1088.000000pt" viewBox="0 0 1087.000000 1088.000000"
 preserveAspectRatio="xMidYMid meet">
<metadata>
Created by potrace 1.16, written by Peter Selinger 2001-2019
</metadata>
<g transform="translate(0.000000,1088.000000) scale(0.100000,-0.100000)"
fill="#000000" stroke="none">
<path d="M5720 10773 c294 -21 612 -69 860 -129 172 -41 381 -102 394 -114 5
-5 -27 3 -70 16 -215 69 -522 137 -769 173 -272 39 -384 46 -735 46 -351 0
-463 -7 -735 -46 -247 -36 -554 -104 -769 -173 -43 -13 -75 -21 -70 -16 13 12
164 57 359 106 94 23 162 43 153 43 -25 1 -345 -81 -463 -119 -171 -55 -393
-140 -560 -214 -197 -88 -417 -204 -410 -216 3 -5 0 -12 -6 -16 -8 -4 -9 -3
-5 4 10 16 1 15 -35 -3 -16 -9 -27 -20 -24 -25 3 -5 0 -12 -6 -16 -8 -4 -9 -3
-5 4 9 15 1 15 -25 1 -11 -5 -17 -14 -14 -19 3 -5 0 -12 -6 -16 -8 -4 -9 -3
-5 4 9 15 1 15 -25 1 -11 -5 -17 -14 -14 -19 3 -5 0 -12 -6 -16 -8 -5 -9 -3
-4 6 5 8 3 11 -6 8 -8 -3 -14 -10 -14 -16 0 -5 -4 -14 -9 -19 -5 -5 -6 -3 -2
5 9 15 1 15 -25 1 -11 -5 -17 -14 -14 -19 3 -5 0 -12 -6 -16 -8 -5 -9 -3 -4 6
5 8 3 11 -6 8 -8 -3 -14 -10 -14 -16 0 -5 -4 -14 -9 -19 -5 -5 -6 -2 -1 6 5 9
3 12 -6 9 -8 -3 -14 -10 -14 -16 0 -5 -4 -14 -9 -19 -5 -5 -6 -2 -1 6 5 9 3
12 -6 9 -8 -3 -14 -10 -14 -16 0 -5 -4 -14 -9 -19 -5 -5 -6 -2 -1 6 5 9 3 12
-6 9 -8 -3 -14 -10 -14 -16 0 -5 -4 -14 -9 -19 -5 -5 -6 -3 -2 5 11 18 -9 15
-25 -5 -10 -11 -10 -14 -1 -9 18 11 15 1 -5 -15 -14 -12 -16 -12 -9 0 6 9 4
12 -5 9 -8 -3 -14 -10 -14 -16 0 -5 -4 -14 -9 -19 -5 -5 -6 -3 -2 5 11 18 -9
15 -25 -5 -10 -11 -10 -14 -1 -9 18 11 15 1 -5 -15 -14 -12 -16 -12 -9 0 6 9
4 12 -5 9 -8 -3 -14 -10 -14 -16 0 -6 -7 -17 -15 -24 -12 -11 -12 -11 -1 5 7
9 9 17 3 17 -12 0 -34 -25 -27 -32 3 -3 -3 -11 -12 -19 -16 -13 -17 -12 -4 4
20 25 -2 21 -25 -5 -10 -12 -13 -18 -7 -14 19 10 16 1 -4 -15 -11 -10 -14 -10
-9 -1 11 18 -9 15 -25 -5 -12 -15 -12 -16 1 -8 9 5 8 0 -4 -13 -21 -25 -36
-31 -16 -7 20 24 -5 17 -26 -7 -12 -13 -13 -18 -4 -13 9 5 8 0 -4 -13 -21 -25
-36 -31 -16 -7 22 27 -6 16 -31 -12 -18 -21 -19 -24 -4 -13 15 11 14 8 -4 -13
-25 -28 -43 -38 -21 -12 33 39 -12 6 -114 -84 -136 -121 -361 -350 -480 -489
-128 -149 -328 -419 -427 -579 -96 -153 -153 -253 -146 -253 2 0 26 37 52 83
67 115 194 315 205 322 5 3 -26 -50 -69 -117 -165 -259 -335 -586 -436 -843
-141 -355 -267 -842 -300 -1157 l-7 -68 100 0 101 0 6 48 c114 845 451 1633
983 2301 56 69 135 162 177 206 66 70 63 65 -22 -34 -217 -252 -464 -599 -568
-801 -33 -64 -5 -26 46 62 67 117 213 338 292 443 249 330 628 709 944 944 40
29 70 57 68 61 -3 5 9 18 27 30 l33 22 -30 -26 c-16 -14 -26 -26 -22 -26 14 0
66 43 61 51 -2 4 1 11 7 15 8 5 9 3 4 -6 -5 -8 -3 -11 6 -8 8 3 13 10 12 16
-2 6 16 24 40 40 54 37 67 44 67 39 0 -3 -23 -19 -50 -37 -28 -18 -49 -35 -46
-37 7 -7 116 69 111 78 -3 4 0 11 6 15 8 4 9 3 5 -4 -4 -7 -5 -12 -3 -12 3 0
61 33 129 73 327 195 598 318 973 443 105 35 185 63 178 64 -6 0 -72 -20 -147
-44 -75 -24 -136 -40 -136 -36 0 3 48 21 108 40 59 18 125 38 147 45 153 49
525 125 755 154 604 77 1170 45 1785 -101 93 -22 188 -46 210 -53 22 -7 88
-27 148 -45 59 -19 107 -37 107 -40 0 -4 -61 12 -136 36 -75 24 -141 44 -147
44 -7 -1 74 -29 178 -64 375 -125 646 -248 973 -443 68 -40 126 -73 129 -73 2
0 1 5 -3 12 -4 7 -3 8 5 4 6 -4 9 -11 6 -15 -5 -9 104 -85 111 -78 3 2 -18 19
-46 37 -27 18 -50 34 -50 37 0 5 13 -2 67 -39 24 -16 42 -34 40 -40 -1 -6 4
-13 12 -16 9 -3 11 0 6 8 -5 9 -4 11 4 6 6 -4 9 -11 7 -15 -5 -8 47 -51 61
-51 4 0 -5 12 -22 26 l-30 26 33 -22 c18 -12 30 -25 27 -30 -2 -4 28 -32 68
-61 158 -118 321 -261 503 -443 257 -257 410 -443 594 -721 50 -77 94 -142 97
-145 17 -15 -32 62 -118 190 -114 169 -225 313 -363 471 -55 63 -87 103 -71
89 49 -44 215 -242 315 -375 109 -145 251 -359 254 -383 4 -27 22 -24 103 17
55 27 80 45 80 58 0 10 -35 74 -79 142 -43 68 -73 119 -66 113 7 -6 47 -64 88
-130 41 -66 77 -119 78 -117 8 7 -155 252 -266 402 -150 201 -270 341 -446
521 -189 193 -425 403 -365 325 7 -10 1 -7 -14 6 -30 27 -37 41 -9 20 9 -7 6
-1 -7 14 -27 30 -52 38 -30 10 11 -15 10 -14 -9 1 -24 21 -29 31 -9 20 6 -4 3
2 -7 14 -23 26 -44 30 -25 5 11 -15 10 -14 -9 1 -24 21 -29 32 -9 20 8 -5 8
-2 -2 9 -16 20 -36 23 -25 5 5 -9 2 -9 -9 1 -20 16 -23 25 -4 15 6 -4 3 2 -7
14 -23 26 -45 30 -25 5 13 -16 12 -17 -4 -4 -9 8 -15 16 -12 19 7 7 -15 32
-27 32 -6 0 -4 -8 3 -17 13 -16 12 -17 -3 -5 -10 8 -16 19 -15 24 1 6 -4 13
-12 16 -10 3 -11 0 -5 -9 7 -12 5 -12 -9 0 -20 16 -23 26 -4 15 8 -5 8 -2 -2
9 -16 20 -36 23 -25 5 4 -8 3 -10 -2 -5 -5 5 -9 14 -9 20 0 5 -6 12 -14 15 -9
3 -11 0 -5 -9 7 -12 5 -12 -9 0 -20 16 -23 26 -4 15 8 -5 8 -2 -2 9 -16 20
-36 23 -25 5 4 -8 3 -10 -2 -5 -5 5 -9 14 -9 20 0 5 -6 12 -14 15 -9 3 -11 0
-6 -9 5 -8 4 -11 -1 -6 -5 5 -9 14 -9 20 0 5 -6 12 -14 15 -9 3 -11 0 -6 -9 5
-8 4 -11 -1 -6 -5 5 -9 14 -9 20 0 5 -6 12 -14 15 -9 3 -11 0 -6 -9 5 -8 4
-11 -1 -6 -5 5 -9 14 -9 20 0 5 -6 12 -14 15 -9 3 -11 0 -6 -8 5 -9 4 -11 -4
-6 -6 4 -9 11 -6 16 3 5 -3 14 -14 19 -26 14 -34 14 -25 -1 4 -8 3 -10 -2 -5
-5 5 -9 14 -9 20 0 5 -6 12 -14 15 -9 3 -11 0 -6 -8 5 -9 4 -11 -4 -6 -6 4 -9
11 -6 16 3 5 -3 14 -14 19 -26 14 -34 14 -25 -1 4 -7 3 -8 -5 -4 -6 4 -9 11
-6 16 3 5 -3 14 -14 19 -26 14 -34 14 -25 -1 4 -7 3 -8 -5 -4 -6 4 -9 11 -6
16 3 5 -8 16 -24 25 -36 18 -45 19 -35 3 4 -7 3 -8 -5 -4 -6 4 -9 11 -6 16 7
12 -213 128 -410 216 -395 176 -812 303 -1225 373 -197 33 -454 62 -533 59
l-52 -1 45 -4z"/>
<path d="M10128 7670 c-53 -13 -160 -69 -153 -80 3 -5 0 -12 -6 -16 -8 -5 -9
-3 -4 6 5 8 3 11 -6 8 -8 -3 -13 -10 -12 -16 1 -5 -5 -16 -15 -24 -15 -12 -16
-11 -3 5 7 9 9 17 4 17 -9 0 -153 -142 -153 -152 0 -3 30 24 67 61 l66 66 -63
-70 c-64 -70 -76 -83 -73 -77 2 6 -28 42 -77 93 -52 54 -108 74 -184 65 -56
-6 -180 -61 -172 -75 4 -5 1 -13 -5 -17 -8 -5 -9 -3 -4 6 5 8 3 11 -6 8 -8 -3
-14 -10 -14 -16 0 -5 -4 -14 -9 -19 -5 -5 -6 -3 -2 5 12 21 -10 13 -30 -10
-19 -22 -19 -23 1 -8 15 11 14 7 -4 -13 -25 -28 -43 -38 -21 -12 7 8 8 15 3
15 -12 0 -50 -40 -45 -47 2 -3 0 -8 -4 -11 -4 -4 -3 0 1 8 5 10 1 8 -13 -4
-26 -23 -30 -44 -4 -25 9 7 6 1 -7 -13 -21 -24 -50 -30 -36 -8 3 5 -3 14 -14
19 -26 14 -34 14 -25 -1 4 -8 3 -10 -2 -5 -5 5 -9 14 -9 20 0 5 -6 12 -14 15
-9 3 -11 0 -6 -8 5 -9 4 -11 -4 -6 -6 4 -9 11 -6 16 3 5 -3 14 -14 19 -26 14
-34 14 -25 -1 4 -8 3 -10 -2 -5 -5 5 -9 14 -9 20 0 5 -6 12 -14 15 -9 3 -11 0
-6 -8 5 -9 4 -11 -4 -6 -6 4 -9 11 -6 16 3 4 -11 17 -31 29 -27 16 -40 19 -55
11 -11 -6 -17 -15 -14 -20 3 -5 0 -12 -6 -16 -8 -5 -9 -3 -4 6 5 8 3 11 -6 8
-8 -3 -14 -10 -14 -15 0 -6 -4 -15 -9 -20 -5 -5 -6 -2 -1 6 5 9 3 12 -6 9 -8
-3 -14 -10 -14 -15 0 -6 -4 -15 -9 -20 -5 -5 -6 -3 -2 5 9 15 1 15 -25 1 -11
-5 -17 -14 -14 -19 3 -5 0 -12 -6 -16 -8 -4 -9 -3 -5 4 9 15 1 15 -25 1 -11
-5 -17 -14 -14 -19 3 -5 0 -12 -6 -16 -8 -4 -9 -3 -5 4 9 15 1 15 -25 1 -11
-5 -17 -14 -14 -19 3 -5 0 -12 -6 -16 -8 -4 -9 -3 -5 4 10 16 1 15 -35 -3 -16
-9 -27 -20 -24 -25 3 -5 0 -12 -6 -16 -8 -4 -9 -3 -5 4 9 15 1 15 -25 1 -11
-5 -17 -14 -14 -19 3 -5 0 -12 -6 -16 -8 -4 -9 -3 -5 4 9 15 1 15 -25 1 -11
-5 -17 -14 -14 -19 3 -5 0 -12 -6 -16 -8 -4 -9 -3 -5 4 9 15 1 15 -25 1 -11
-5 -17 -14 -14 -19 3 -5 0 -12 -6 -16 -8 -5 -9 -3 -4 6 5 8 3 11 -6 8 -8 -3
-14 -10 -14 -16 0 -5 -4 -14 -9 -19 -5 -5 -6 -3 -2 5 10 17 -5 15 -32 -4 -12
-8 -20 -19 -17 -24 3 -5 0 -12 -6 -16 -8 -5 -9 -3 -4 6 5 8 3 11 -6 8 -8 -3
-14 -10 -14 -16 0 -5 -4 -14 -9 -19 -5 -5 -6 -2 -1 6 5 9 3 12 -6 9 -8 -3 -14
-10 -14 -16 0 -6 -7 -17 -15 -24 -12 -11 -12 -11 -1 5 19 25 -2 21 -25 -5 -12
-13 -13 -18 -4 -13 13 8 13 7 1 -8 -15 -18 -26 -23 -16 -7 18 30 -20 2 -83
-60 -129 -127 -189 -238 -199 -367 -7 -89 10 -179 47 -254 29 -57 123 -169
142 -169 6 0 4 8 -3 18 -13 15 -12 16 3 3 10 -7 15 -17 13 -22 -8 -12 63 -46
132 -64 59 -16 135 -19 165 -7 10 4 -20 7 -65 7 -78 0 -179 24 -192 45 -3 4
19 -1 48 -13 38 -15 76 -21 139 -21 47 -1 88 1 91 4 3 3 -5 60 -16 128 l-22
122 -42 0 c-23 0 -44 3 -46 8 -3 4 16 6 41 5 l47 -2 -50 9 c-27 4 -59 11 -69
16 -15 6 -18 4 -12 -7 4 -8 -8 3 -28 23 -89 93 -66 237 57 354 l51 49 -51 -56
c-53 -58 -93 -126 -93 -156 1 -10 7 -2 14 18 21 58 54 106 109 155 29 26 45
43 37 39 -10 -6 -8 -1 4 13 21 25 36 31 16 7 -8 -9 -9 -15 -2 -15 11 0 27 19
27 32 0 3 4 10 9 15 5 5 6 2 1 -6 -5 -9 -3 -12 6 -9 8 3 14 10 14 16 0 5 4 14
9 19 5 5 6 2 1 -6 -5 -9 -3 -12 6 -9 8 3 14 10 14 16 0 5 4 14 9 19 5 5 6 2 1
-6 -5 -9 -3 -12 6 -9 8 3 14 10 14 16 0 5 4 14 9 19 5 5 6 3 2 -4 -9 -16 -1
-16 25 -2 11 5 17 14 14 19 -3 5 0 12 6 16 8 4 9 3 5 -4 -9 -15 -1 -15 25 -1
11 5 17 14 14 19 -3 5 0 12 6 16 8 4 9 3 5 -4 -9 -15 -1 -15 25 -1 11 5 17 14
14 19 -3 5 0 12 6 16 8 4 9 3 5 -4 -9 -15 -1 -15 25 -1 11 5 17 14 14 19 -3 5
0 12 6 16 8 4 9 3 5 -4 -9 -15 -1 -15 25 -1 11 5 17 14 14 19 -3 5 0 12 6 16
7 4 9 3 5 -4 -3 -5 -1 -12 5 -14 8 -3 3 -43 -15 -132 -14 -71 -26 -136 -25
-145 1 -14 17 59 60 267 6 30 12 52 15 50 2 -2 -69 -375 -156 -828 -88 -453
-159 -825 -157 -827 6 -5 281 47 288 55 3 4 68 329 143 722 156 810 137 750
268 875 l62 60 -65 -70 c-103 -111 -109 -123 -140 -274 -16 -75 -28 -145 -28
-156 1 -11 16 50 33 136 36 175 55 212 159 305 29 26 52 50 52 54 0 5 4 12 9
17 5 5 6 3 2 -4 -9 -17 3 -16 34 2 14 8 39 14 56 15 40 0 47 -21 34 -110 -11
-72 -12 -95 -6 -89 12 12 24 159 16 188 -5 17 -5 29 -1 26 18 -10 20 -68 6
-157 -8 -51 -75 -403 -149 -783 -74 -379 -133 -691 -131 -693 4 -4 286 45 290
50 1 2 64 325 140 718 75 393 141 723 146 733 14 25 20 21 9 -5 -13 -30 -122
-597 -118 -610 2 -5 30 127 62 294 62 326 58 314 152 438 22 29 22 30 3 10
-13 -14 -39 -44 -57 -65 -27 -32 -29 -33 -12 -7 12 18 44 56 72 85 28 28 43
42 33 30 -25 -32 -4 -29 26 4 13 14 17 22 9 18 -13 -8 -13 -7 -1 8 15 18 26
23 16 7 -8 -13 1 -13 26 1 11 5 17 14 14 20 -8 12 37 29 75 29 34 0 50 -23 50
-74 0 -19 -64 -360 -142 -758 -125 -642 -141 -734 -141 -823 0 -67 6 -114 17
-144 9 -24 16 -49 15 -55 -1 -19 -21 36 -35 94 -9 39 -12 46 -13 25 0 -39 32
-130 46 -130 7 0 23 -18 37 -40 l26 -40 -31 35 c-33 36 -30 26 4 -22 11 -15
25 -24 31 -21 6 3 8 2 3 -2 -4 -5 0 -17 10 -27 18 -20 38 -25 27 -5 -5 8 -2 8
9 -2 20 -16 23 -26 5 -15 -9 5 -9 2 1 -9 15 -19 36 -23 25 -5 -4 7 -3 8 5 4 6
-4 9 -12 5 -17 -6 -10 87 -55 133 -64 15 -3 9 2 -15 11 -59 22 -48 27 17 8 29
-9 54 -14 55 -12 1 1 13 61 25 132 19 107 21 130 10 137 -12 7 -11 9 1 9 8 1
-1 9 -20 20 -41 23 -54 25 -44 8 4 -7 -3 -4 -16 7 -33 29 -50 76 -50 139 0 30
63 380 140 778 77 397 145 763 151 812 17 140 0 226 -58 297 l-27 34 27 -24
c64 -58 87 -166 68 -316 -7 -50 -55 -310 -107 -579 -52 -269 -93 -493 -92
-498 4 -12 194 965 209 1077 13 91 7 187 -14 237 -46 110 -169 175 -279 148z"/>
<path d="M7172 7180 c-35 -16 -61 -34 -57 -39 3 -5 0 -13 -6 -17 -8 -4 -9 -3
-5 4 4 7 3 12 -2 12 -24 0 -167 -181 -167 -212 0 -3 -4 -10 -9 -15 -5 -5 -6
-3 -2 5 9 15 1 15 -25 1 -11 -5 -17 -14 -14 -19 3 -5 0 -12 -6 -16 -8 -4 -9
-3 -5 4 9 15 1 15 -25 1 -11 -5 -17 -14 -14 -19 3 -5 0 -12 -6 -16 -8 -4 -9
-3 -5 4 9 15 1 15 -25 1 -11 -5 -17 -14 -14 -19 3 -5 0 -12 -6 -16 -8 -4 -9
-3 -5 4 10 16 1 15 -35 -3 -16 -9 -27 -20 -24 -25 3 -5 0 -12 -6 -16 -8 -4 -9
-3 -5 4 12 20 -2 14 -75 -29 -38 -23 -67 -45 -64 -49 3 -5 0 -12 -6 -16 -8 -4
-9 -3 -5 4 9 15 1 15 -25 1 -11 -5 -17 -14 -14 -19 3 -5 0 -12 -6 -16 -8 -5
-9 -3 -4 6 5 8 3 11 -6 8 -8 -3 -14 -10 -14 -16 0 -5 -4 -14 -9 -19 -5 -5 -6
-2 -1 6 5 9 3 12 -6 9 -8 -3 -14 -10 -14 -16 0 -5 -4 -14 -9 -19 -5 -5 -6 -3
-2 5 11 18 -9 15 -25 -5 -10 -11 -10 -14 -1 -9 18 11 15 1 -5 -15 -11 -10 -14
-10 -9 -1 11 18 -9 15 -25 -5 -10 -11 -10 -14 -1 -9 18 11 15 1 -5 -15 -11
-10 -14 -10 -9 -1 14 23 -10 12 -35 -15 -22 -25 -22 -26 -1 -9 34 29 26 14
-10 -20 -18 -16 -26 -21 -19 -11 7 9 9 17 4 17 -13 0 -54 -45 -48 -53 3 -4 2
-5 -2 -2 -8 6 -43 -24 -43 -38 0 -5 8 -3 17 4 10 8 1 -6 -20 -31 -140 -165
-159 -406 -47 -578 l30 -47 -31 35 c-17 19 -27 26 -21 15 15 -30 92 -115 104
-115 6 0 5 7 -3 18 -11 14 -10 13 9 -2 24 -21 29 -31 10 -21 -7 4 -3 -3 10
-14 55 -48 258 -91 306 -64 10 5 -8 7 -52 5 -37 -2 -83 0 -102 6 -27 7 -14 8
55 5 50 -2 96 0 104 5 11 8 10 29 -9 131 l-22 121 -43 0 c-24 0 -46 3 -48 8
-3 4 18 5 46 3 70 -4 57 5 -16 12 -42 4 -56 3 -51 -6 4 -7 3 -8 -2 -4 -5 5 -9
14 -9 19 0 6 -6 13 -14 16 -9 3 -11 0 -5 -9 6 -11 3 -10 -11 1 -28 23 -55 90
-55 141 0 80 26 135 103 213 l70 71 -66 -71 c-77 -85 -103 -147 -94 -229 5
-51 33 -122 44 -112 2 3 -3 17 -12 30 -26 40 -30 125 -10 188 14 43 33 69 93
128 41 40 68 70 61 65 -12 -6 -12 -5 0 9 15 18 26 23 16 7 -10 -17 12 -11 26
7 12 15 12 16 -1 8 -13 -8 -13 -7 -1 8 15 19 26 23 15 6 -4 -7 -1 -10 7 -7 8
3 14 10 14 15 0 6 4 15 9 20 5 5 6 3 2 -4 -9 -16 -1 -16 25 -2 11 5 17 14 14
19 -3 5 0 12 6 16 8 5 9 3 4 -6 -5 -8 -3 -11 6 -8 8 3 14 10 14 16 0 5 4 14 9
19 5 5 6 3 2 -4 -11 -19 -1 -16 59 18 30 17 53 35 50 39 -3 5 0 12 6 16 8 5 9
3 4 -6 -6 -10 -4 -12 10 -7 16 7 17 3 11 -30 -16 -99 -13 -108 6 -18 12 55 23
95 25 89 2 -6 -37 -218 -87 -472 -53 -275 -92 -500 -96 -559 -11 -171 19 -291
93 -374 21 -24 32 -39 24 -34 -10 5 -12 4 -7 -4 12 -18 80 -50 124 -57 63 -10
223 47 249 88 3 7 1 8 -5 4 -18 -11 -14 0 5 15 11 10 14 10 9 2 -4 -7 -3 -13
2 -13 10 0 142 134 142 144 0 4 -26 -20 -57 -52 -32 -32 -39 -38 -17 -13 23
26 60 70 83 100 30 39 41 47 37 30 -4 -13 -12 -55 -20 -93 -9 -45 -22 -76 -36
-90 -13 -11 -19 -15 -15 -7 5 9 3 12 -6 9 -8 -3 -14 -10 -14 -15 0 -6 -4 -15
-9 -20 -5 -5 -6 -2 -1 6 5 9 3 12 -6 9 -8 -3 -14 -10 -14 -15 0 -6 -4 -15 -9
-20 -5 -5 -6 -2 -1 6 5 9 3 12 -6 9 -8 -3 -14 -10 -14 -15 0 -6 -4 -15 -9 -20
-5 -5 -6 -2 -1 6 5 9 3 12 -6 9 -8 -3 -14 -10 -14 -15 0 -6 -4 -15 -9 -20 -5
-5 -6 -2 -1 6 5 9 3 12 -6 9 -8 -3 -13 -10 -12 -16 1 -5 -5 -16 -15 -24 -15
-12 -16 -11 -3 5 7 9 9 17 3 17 -11 0 -38 -30 -35 -39 1 -3 -1 -8 -4 -11 -4
-3 -3 1 1 8 11 18 -9 15 -25 -5 -10 -11 -10 -14 -1 -9 18 11 15 1 -5 -15 -11
-10 -14 -10 -9 -1 18 30 -17 7 -75 -51 -70 -69 -123 -158 -134 -224 -8 -48 9
-141 30 -169 11 -14 11 -9 -2 21 -10 24 -17 68 -17 110 0 60 4 78 32 131 18
33 61 87 95 120 l61 59 -62 -67 c-126 -135 -153 -273 -75 -393 26 -40 26 -40
2 -20 l-24 20 15 -20 c26 -37 53 -65 63 -65 5 0 3 8 -4 18 -13 15 -12 16 3 3
10 -7 15 -17 12 -22 -3 -5 16 -19 41 -30 67 -30 178 -24 258 14 32 14 56 31
53 36 -4 5 -1 13 5 17 8 4 9 3 5 -4 -19 -31 17 -6 61 41 56 62 104 148 138
247 26 76 69 274 63 292 -2 6 -12 -34 -22 -88 -10 -55 -30 -135 -43 -179 -24
-76 -78 -195 -88 -195 -3 0 8 27 25 60 39 76 73 196 106 368 14 75 30 141 35
146 5 5 4 -6 -1 -25 -6 -18 -10 -43 -9 -54 1 -11 5 -2 10 20 5 21 20 51 32 64
19 22 19 23 2 11 -20 -15 -20 -14 -1 8 20 23 32 30 21 12 -3 -5 -2 -10 3 -10
5 0 61 53 123 118 118 121 229 273 295 403 44 88 94 215 94 237 -1 9 -10 -10
-21 -43 -24 -74 -131 -291 -160 -325 -15 -18 -14 -13 6 20 87 149 159 321 150
358 -4 18 -3 22 7 16 10 -6 9 -3 -1 9 -15 19 -36 23 -25 5 4 -7 3 -8 -5 -4 -6
4 -9 12 -5 17 5 9 -54 39 -78 39 -7 0 -23 -32 -35 -70 -24 -76 -103 -241 -134
-281 -10 -13 6 24 36 82 52 101 116 255 97 234 -5 -5 -17 -32 -27 -60 -36
-100 -139 -287 -207 -372 -38 -49 -52 -70 -31 -48 21 22 51 56 66 75 l29 35
-28 -40 c-37 -54 -96 -115 -105 -109 -4 2 -10 0 -14 -6 -4 -6 -11 -8 -16 -5
-5 4 -9 -4 -9 -17 0 -13 -5 -30 -10 -38 -8 -11 -9 -9 -5 10 16 71 324 1674
322 1676 -1 1 -67 -10 -147 -24 l-145 -27 -102 -530 c-57 -291 -113 -561 -125
-600 -25 -78 -126 -286 -159 -325 -15 -18 -13 -13 6 20 77 132 149 297 159
366 5 29 1 23 -12 -21 -85 -271 -279 -559 -404 -597 -36 -11 -42 -10 -55 8
-24 31 -10 218 31 424 20 96 35 182 35 190 -4 49 -81 -380 -86 -475 -6 -136 3
-169 47 -163 19 3 27 1 21 -5 -16 -16 -55 -3 -68 23 -7 14 -13 62 -13 112 0
70 21 197 110 654 61 312 115 586 121 608 12 43 56 136 64 136 3 0 -7 -24 -21
-52 -25 -48 -106 -400 -103 -446 0 -9 20 75 43 188 47 223 69 282 137 355 l40
43 -36 71 c-19 39 -38 71 -40 71 -3 0 11 -32 31 -71 l36 -72 -43 -41 -44 -41
39 42 39 41 -42 77 c-22 42 -41 83 -41 91 0 21 -18 17 -88 -16z m78 -2312
c-17 -52 -43 -108 -56 -124 l-25 -29 17 30 17 30 -26 -30 c-14 -16 -23 -33
-21 -37 2 -4 -1 -10 -7 -14 -8 -4 -9 -3 -5 4 11 19 -5 14 -21 -5 -8 -10 -12
-12 -8 -5 3 7 0 12 -8 12 -52 0 -44 82 13 144 22 24 37 45 35 48 -3 3 2 11 12
19 14 12 15 12 9 0 -6 -9 -5 -12 5 -9 8 3 13 10 12 16 -1 5 5 16 15 24 15 12
16 11 3 -4 -7 -10 -9 -18 -3 -18 13 0 33 25 26 32 -3 3 0 9 7 14 7 4 10 3 7
-2 -3 -5 -2 -18 2 -29 6 -16 8 -12 15 20 5 22 10 33 12 23 2 -9 -10 -58 -27
-110z"/>
<path d="M5230 6934 c134 -15 204 -26 237 -39 52 -19 37 -18 -39 2 -124 32
-348 18 -488 -32 -25 -9 -40 -12 -35 -7 20 19 127 46 255 66 20 3 19 4 -7 5
-93 4 -406 -100 -388 -129 3 -5 0 -12 -6 -16 -8 -4 -9 -3 -5 4 9 15 1 15 -25
1 -11 -5 -17 -14 -14 -19 3 -5 0 -12 -6 -16 -8 -5 -9 -3 -4 6 5 8 3 11 -6 8
-8 -3 -14 -10 -14 -16 0 -6 -7 -17 -15 -24 -12 -11 -12 -11 -1 5 19 25 -2 21
-25 -5 -12 -13 -13 -18 -4 -13 9 5 8 0 -4 -13 -21 -25 -36 -31 -16 -7 7 8 8
15 3 15 -26 0 -183 -188 -217 -260 -17 -36 -15 -34 46 59 20 31 60 81 90 112
29 31 37 38 18 15 -74 -85 -120 -154 -159 -236 -63 -132 -76 -192 -76 -360 0
-124 3 -156 23 -220 26 -80 71 -177 107 -225 12 -16 25 -39 29 -50 7 -17 20
-7 106 83 l97 103 -31 54 c-17 29 -33 51 -35 49 -2 -2 10 -26 27 -53 16 -27
28 -52 25 -55 -8 -7 -59 94 -83 163 -47 139 -6 375 85 486 9 11 2 -5 -15 -36
-16 -31 -30 -60 -30 -65 0 -5 14 15 30 45 39 71 74 117 129 170 25 24 39 40
31 35 -13 -7 -13 -5 -1 9 15 19 26 23 15 6 -4 -7 -1 -10 7 -7 8 3 14 10 14 15
0 6 4 15 9 20 5 5 6 2 1 -6 -4 -7 -4 -12 1 -9 156 75 219 92 349 92 96 0 136
-9 229 -49 15 -7 17 -5 11 6 -5 8 -5 11 1 6 5 -5 9 -14 9 -19 0 -6 6 -13 14
-16 8 -3 11 0 7 7 -11 17 0 13 15 -6 12 -15 12 -16 -1 -8 -8 5 10 -18 41 -51
64 -68 90 -114 131 -229 16 -44 26 -64 22 -45 -9 53 -62 174 -96 222 -23 32
-25 38 -9 23 33 -28 98 -168 121 -259 59 -233 42 -521 -45 -766 -33 -91 -86
-194 -121 -235 -20 -23 -18 -19 6 18 97 147 183 432 179 591 -1 41 -3 35 -10
-31 -28 -288 -147 -574 -283 -678 -20 -15 -34 -31 -31 -35 3 -5 0 -12 -6 -16
-8 -4 -9 -3 -5 4 9 15 1 15 -25 1 -11 -5 -16 -15 -13 -21 4 -7 3 -8 -4 -4 -6
4 -37 -1 -69 -10 -70 -20 -164 -15 -244 15 -91 34 -93 37 -69 100 12 29 19 55
17 57 -2 3 -14 -22 -26 -55 -12 -33 -27 -63 -32 -67 -6 -3 -4 7 4 22 37 74 73
222 156 634 78 386 116 540 135 540 3 0 -2 -16 -10 -36 -8 -20 -13 -38 -11
-40 2 -3 12 16 21 40 10 25 38 68 63 96 l46 52 -38 79 c-21 43 -40 77 -43 75
-2 -2 13 -36 32 -75 20 -39 36 -74 36 -78 -1 -10 -90 -108 -90 -99 0 4 19 27
42 52 l42 45 -39 80 c-22 43 -45 79 -51 79 -7 0 -25 -5 -40 -10 -15 -6 -29 -8
-31 -6 -3 3 17 11 43 20 27 8 40 15 29 15 -29 0 -110 -35 -110 -47 0 -6 -4
-14 -9 -19 -5 -5 -6 -2 -1 6 5 9 3 12 -6 9 -8 -3 -14 -10 -14 -15 0 -6 -4 -15
-9 -20 -5 -5 -6 -3 -2 5 4 6 3 12 -2 12 -27 0 -172 -191 -172 -225 0 -5 14 16
31 47 17 31 52 79 78 105 25 27 34 35 20 19 -108 -127 -125 -175 -215 -641
-75 -388 -102 -506 -130 -568 l-15 -32 6 30 c4 19 2 25 -3 17 -7 -11 -21 -8
-68 16 -107 54 -194 75 -292 70 -90 -5 -207 -41 -207 -65 0 -6 -4 -15 -9 -20
-5 -5 -6 -3 -2 5 17 29 -15 8 -63 -43 -67 -71 -100 -143 -106 -232 l-4 -68 9
70 c13 88 56 178 112 230 l42 40 -43 -48 c-68 -77 -95 -146 -95 -242 0 -93 26
-163 90 -236 35 -40 35 -41 5 -14 -39 36 -78 100 -96 158 -8 23 -14 33 -14 22
-1 -35 47 -123 95 -175 43 -46 75 -67 58 -37 -4 7 -3 9 2 4 5 -5 9 -14 9 -20
0 -16 103 -57 140 -56 26 1 25 2 -10 9 -46 9 -95 27 -95 34 0 3 19 -2 43 -10
85 -32 247 -19 357 28 25 11 40 14 34 9 -18 -19 -122 -51 -212 -66 -78 -13
-80 -14 -22 -9 36 3 85 10 110 16 64 15 193 76 186 87 -4 5 -1 13 5 17 8 5 9
3 4 -6 -5 -8 -3 -11 6 -8 8 3 14 10 14 16 0 5 4 14 9 19 5 5 6 3 2 -4 -12 -22
10 -14 30 9 19 22 19 23 -1 8 -11 -7 9 16 45 53 62 64 78 79 65 57 -4 -6 44
-34 107 -65 117 -57 218 -86 298 -84 35 1 28 4 -30 10 -97 11 -168 32 -252 75
-96 48 -85 51 15 4 150 -72 285 -85 429 -40 32 10 58 16 58 14 0 -8 -53 -25
-115 -39 -33 -7 -48 -14 -34 -14 61 -2 287 88 274 109 -3 5 0 12 6 16 8 5 9 3
4 -6 -5 -8 -3 -11 6 -8 8 3 13 10 12 16 -1 5 5 16 15 24 15 12 16 11 3 -4 -22
-29 3 -21 30 9 18 21 19 24 4 13 -15 -11 -14 -8 4 13 25 28 43 38 21 12 -8 -9
-8 -15 -2 -15 30 0 182 201 241 317 46 92 37 91 -12 -2 -42 -79 -103 -175
-113 -175 -3 0 13 26 34 58 250 368 300 995 109 1377 -40 81 -80 138 -146 210
-54 58 -54 59 -7 15 65 -61 128 -151 169 -241 19 -41 39 -85 46 -99 l11 -25
-6 25 c-9 40 -70 166 -105 217 -37 55 -168 193 -182 193 -5 0 -3 -8 4 -17 11
-16 11 -16 -1 -5 -8 7 -15 18 -15 24 0 6 -6 13 -14 16 -9 3 -11 0 -6 -9 5 -8
4 -11 -1 -6 -5 5 -9 14 -9 19 0 6 -6 13 -14 16 -9 3 -11 0 -6 -9 5 -8 4 -11
-1 -6 -5 5 -9 14 -9 20 0 14 -110 61 -191 82 -32 8 -98 17 -148 19 -50 2 -75
2 -56 0z m-984 -1842 c-3 -5 27 -7 67 -4 73 4 86 1 216 -55 10 -5 12 -2 6 7
-5 8 -4 11 3 6 6 -4 8 -14 5 -24 -6 -15 -5 -15 10 -3 33 27 16 4 -30 -39 -26
-25 -41 -37 -34 -27 7 9 9 17 3 17 -13 0 -33 -25 -26 -33 3 -3 -5 -10 -18 -17
-23 -11 -23 -11 -3 6 l20 17 -20 -8 c-87 -34 -164 -40 -220 -19 -14 6 -16 4
-10 -7 8 -12 6 -12 -8 -1 -9 8 -21 29 -27 47 -9 29 -8 42 9 80 11 25 22 45 26
45 3 0 -2 -14 -11 -31 -19 -37 -21 -89 -5 -116 10 -16 11 -15 5 7 -11 40 -7
80 13 108 9 15 18 30 19 35 3 15 4 17 10 17 3 0 3 -4 0 -8z"/>
<path d="M3745 6496 c-58 -18 -107 -45 -100 -56 3 -5 0 -12 -6 -16 -8 -5 -9
-3 -4 6 5 8 3 11 -6 8 -8 -3 -14 -10 -14 -15 0 -6 -4 -15 -9 -20 -5 -5 -6 -3
-2 5 12 21 -10 13 -30 -10 -19 -22 -19 -23 1 -8 15 11 14 7 -4 -13 -25 -28
-43 -38 -21 -12 8 9 8 15 2 15 -12 0 -202 -200 -202 -213 0 -4 5 -5 12 -1 6 4
3 -5 -8 -19 l-19 -27 -20 23 c-11 13 -60 72 -108 131 -67 81 -93 106 -105 101
-13 -5 -14 -4 -5 6 17 17 27 7 135 -126 50 -60 95 -112 100 -114 6 -2 -38 54
-97 125 -60 71 -110 131 -111 133 -7 8 -55 -19 -49 -28 3 -5 0 -13 -6 -17 -8
-5 -9 -3 -4 6 5 8 3 11 -6 8 -8 -3 -14 -10 -14 -16 0 -5 -4 -14 -9 -19 -5 -5
-6 -3 -2 5 9 15 1 15 -25 1 -11 -5 -17 -14 -14 -19 3 -5 0 -12 -6 -16 -8 -4
-9 -3 -5 4 9 15 1 15 -25 1 -11 -5 -17 -14 -14 -19 3 -5 0 -12 -6 -16 -8 -4
-9 -3 -5 4 9 15 1 15 -25 1 -11 -5 -17 -14 -14 -19 3 -5 0 -12 -6 -16 -8 -4
-9 -3 -5 4 11 18 0 15 -59 -19 -30 -17 -53 -35 -50 -39 3 -5 0 -12 -6 -16 -8
-4 -9 -3 -5 4 9 15 1 15 -25 1 -11 -5 -17 -14 -14 -19 3 -5 0 -12 -6 -16 -8
-4 -9 -3 -5 4 9 15 1 15 -25 1 -11 -5 -17 -14 -14 -19 3 -5 0 -12 -6 -16 -8
-4 -9 -3 -5 4 9 15 1 15 -25 1 -11 -5 -17 -14 -14 -19 3 -5 0 -12 -6 -16 -8
-5 -9 -3 -4 6 5 8 3 11 -6 8 -8 -3 -14 -10 -14 -15 0 -6 -4 -15 -9 -20 -5 -5
-6 -2 -1 6 5 9 3 12 -6 9 -8 -3 -14 -10 -14 -15 0 -6 -4 -15 -9 -20 -5 -5 -6
-2 -1 6 5 9 3 12 -6 9 -8 -3 -14 -10 -14 -15 0 -6 -4 -15 -9 -20 -5 -5 -6 -3
-2 5 11 18 -9 15 -25 -5 -12 -15 -12 -16 1 -8 13 8 13 7 1 -8 -15 -18 -26 -23
-16 -7 10 17 -12 11 -26 -7 -12 -15 -12 -16 1 -8 9 5 8 0 -4 -13 -21 -25 -36
-31 -16 -7 25 31 -3 14 -56 -33 -171 -152 -251 -329 -224 -496 19 -118 51
-185 129 -268 40 -44 73 -65 55 -36 -4 7 -3 8 5 4 6 -4 9 -12 5 -17 -3 -5 25
-24 63 -41 60 -28 79 -33 163 -34 l95 -2 -95 8 c-52 4 -110 13 -128 20 -49 18
-33 21 23 5 26 -8 83 -15 127 -15 92 0 87 -13 57 146 -20 107 -23 113 -43 109
-11 -3 -34 -1 -51 5 -27 9 -26 9 11 4 23 -3 44 -2 47 3 3 4 -7 8 -21 8 -15 0
-42 4 -60 8 -25 5 -31 4 -26 -6 4 -6 -9 3 -29 22 -45 43 -60 87 -55 160 6 75
30 123 101 195 l59 61 -54 -61 c-67 -76 -91 -123 -96 -195 -5 -69 10 -118 45
-150 l27 -24 -27 33 c-30 38 -41 84 -35 150 7 70 35 120 107 191 36 36 59 61
51 56 -13 -8 -13 -7 -1 8 15 18 26 23 16 7 -10 -17 12 -11 26 7 12 15 12 16
-1 8 -13 -8 -13 -7 -1 8 15 19 26 23 15 6 -4 -7 -1 -10 7 -7 8 3 14 10 14 15
0 6 4 15 9 20 5 5 6 3 2 -4 -10 -18 2 -16 40 8 19 11 32 25 29 29 -3 5 0 12 6
16 8 4 9 3 5 -4 -11 -18 0 -15 59 19 30 17 53 35 50 39 -3 5 0 12 6 16 8 4 9
3 5 -4 -10 -16 -1 -15 35 3 16 9 27 20 24 25 -3 5 0 12 6 16 8 5 9 3 4 -6 -6
-10 -4 -11 11 -5 10 4 27 8 37 9 11 0 17 9 18 26 0 14 3 20 5 13 3 -6 -66
-376 -152 -822 -87 -446 -155 -814 -151 -817 6 -7 260 35 277 46 6 4 68 303
138 666 l128 660 47 67 c26 36 70 90 98 119 l51 53 -47 -55 c-94 -109 -137
-178 -151 -243 -7 -34 -13 -71 -13 -82 1 -11 9 17 18 61 22 103 71 175 222
327 59 59 105 107 103 107 -2 0 -20 -15 -41 -32 -22 -19 -30 -23 -18 -9 24 28
82 70 70 51 -6 -10 -4 -12 11 -5 10 4 34 10 51 13 21 3 30 8 26 16 -4 6 1 5
10 -3 37 -30 34 -53 -149 -981 -110 -558 -115 -590 -112 -686 4 -86 9 -110 35
-166 17 -36 48 -85 68 -109 l38 -44 -39 40 c-22 22 -47 51 -57 65 l-18 25 12
-24 c14 -30 98 -121 111 -121 5 0 6 6 2 13 -5 8 -2 8 9 -2 19 -15 23 -26 5
-15 -7 4 -8 3 -4 -5 16 -25 200 -100 213 -87 3 2 -21 12 -52 21 -32 9 -55 18
-53 20 2 2 26 -2 53 -10 26 -8 50 -13 53 -11 5 6 53 258 50 261 -2 1 -12 7
-23 14 -19 11 -18 12 5 6 22 -5 23 -4 7 5 -10 7 -25 9 -32 6 -8 -3 -14 0 -12
6 1 6 -4 13 -12 16 -9 3 -11 0 -6 -9 5 -8 -2 -5 -14 6 -41 36 -55 75 -54 150
1 46 51 322 143 795 175 893 181 948 104 1061 -19 29 -28 46 -19 39 29 -24 66
-98 75 -147 7 -43 8 -44 9 -13 1 44 -27 105 -69 153 -31 35 -59 51 -44 25 4
-8 3 -10 -2 -5 -5 5 -9 14 -9 19 0 15 -62 36 -105 37 -19 0 -53 -6 -75 -13z"/>
<path d="M4046 6198 c-3 -23 -8 -65 -11 -93 -4 -27 -69 -376 -146 -774 -77
-397 -138 -733 -136 -745 4 -19 4 -19 6 3 0 14 64 349 141 745 126 651 167
892 156 904 -3 2 -7 -16 -10 -40z"/>
<path d="M1829 6145 c-59 -21 -100 -45 -94 -55 3 -5 0 -12 -6 -16 -8 -4 -9 -3
-5 4 11 18 -10 14 -25 -5 -12 -15 -12 -16 1 -8 13 8 13 7 1 -8 -15 -18 -26
-23 -16 -7 3 6 2 10 -3 10 -5 0 -51 -43 -103 -97 -139 -143 -157 -162 -152
-167 3 -2 31 26 63 62 32 37 84 92 116 122 32 30 14 9 -39 -48 -53 -56 -104
-113 -113 -127 -19 -30 -21 -29 -74 38 l-42 52 42 -45 c60 -64 29 -20 -73 104
-79 96 -112 122 -112 89 0 -6 -4 -15 -9 -20 -5 -5 -6 -2 -1 6 5 9 3 12 -6 9
-8 -3 -14 -10 -14 -15 0 -6 -4 -15 -9 -20 -5 -5 -6 -2 -1 6 5 9 3 12 -6 9 -8
-3 -14 -10 -14 -15 0 -6 -4 -15 -9 -20 -5 -5 -6 -3 -2 5 10 17 3 15 -38 -9
-20 -12 -34 -25 -31 -29 3 -5 0 -12 -6 -16 -8 -4 -9 -3 -5 4 11 18 0 15 -59
-19 -30 -17 -53 -35 -50 -39 3 -5 0 -12 -6 -16 -8 -4 -9 -3 -5 4 4 7 4 12 1
12 -16 0 -194 -113 -190 -120 3 -5 0 -12 -6 -16 -8 -5 -9 -3 -4 6 5 8 3 11 -6
8 -8 -3 -14 -10 -14 -15 0 -6 -4 -15 -9 -20 -5 -5 -6 -3 -2 5 10 17 -5 15 -32
-4 -12 -8 -20 -19 -17 -24 3 -5 0 -12 -6 -16 -8 -5 -9 -3 -4 6 5 8 3 11 -6 8
-8 -3 -14 -10 -14 -15 0 -6 -4 -15 -9 -20 -5 -5 -6 -3 -2 5 11 18 -9 15 -25
-5 -12 -15 -12 -16 1 -8 13 8 13 7 1 -8 -15 -18 -26 -23 -16 -7 12 19 -12 10
-31 -12 -19 -22 -19 -23 1 -8 15 11 14 7 -4 -13 -25 -28 -43 -38 -21 -12 7 9
8 15 2 15 -14 0 -153 -151 -176 -191 -23 -41 -13 -31 41 41 23 30 59 71 79 90
23 21 17 12 -16 -25 -29 -33 -66 -80 -82 -105 -16 -25 -34 -45 -40 -45 -6 0
-13 -7 -15 -15 -4 -13 -3 -13 6 0 15 22 13 -2 -4 -42 -64 -154 -23 -355 97
-485 29 -32 44 -51 33 -43 -20 14 -20 14 -2 -6 35 -41 146 -84 233 -89 l79 -4
-75 9 c-70 9 -166 37 -157 46 2 2 21 -3 43 -12 40 -18 205 -26 219 -12 4 4 0
51 -10 105 -27 154 -21 143 -70 143 -24 0 -46 3 -48 8 -3 4 18 5 46 3 70 -4
57 5 -16 12 -42 4 -56 3 -51 -6 4 -7 3 -8 -2 -4 -5 5 -9 14 -9 20 0 5 -6 12
-14 15 -9 3 -11 0 -5 -9 6 -11 3 -10 -11 1 -30 25 -55 91 -55 150 0 66 31 136
85 195 l37 40 -36 -47 c-53 -68 -76 -124 -76 -188 0 -49 29 -140 44 -140 3 0
-4 19 -14 43 -26 56 -25 139 1 197 11 25 46 72 77 104 31 33 48 53 37 46 -20
-15 -20 -14 -1 8 20 23 32 30 21 12 -10 -17 12 -11 26 7 12 15 12 16 -1 8 -13
-8 -13 -7 -1 8 15 19 26 23 15 6 -4 -7 -1 -10 7 -7 8 3 14 10 14 15 0 6 4 15
9 20 5 5 6 2 1 -6 -5 -9 -3 -12 6 -9 8 3 14 10 14 15 0 6 4 15 9 20 5 5 6 2 1
-6 -5 -9 -3 -12 6 -9 8 3 14 10 14 16 0 5 4 14 9 19 5 5 6 3 2 -4 -9 -16 -1
-16 25 -2 11 5 17 14 14 19 -3 5 0 12 6 16 8 4 9 3 5 -4 -9 -15 -1 -15 25 -1
11 5 17 14 14 19 -3 5 0 12 6 16 8 4 9 3 5 -4 -9 -15 -1 -15 25 -1 11 5 16 15
13 21 -4 7 -3 8 4 4 7 -4 40 9 75 28 35 20 67 33 70 29 4 -3 7 1 7 11 0 9 -5
14 -10 11 -5 -3 -10 -4 -10 -1 0 3 8 10 18 15 16 8 4 -63 -84 -512 -55 -287
-128 -658 -160 -825 -32 -167 -60 -299 -62 -293 -2 5 17 116 43 247 25 130 44
241 43 246 -2 6 -26 -103 -52 -241 -32 -167 -45 -256 -39 -262 7 -7 59 -1 154
16 79 15 145 28 146 29 1 1 59 299 129 662 l127 659 56 79 c31 43 94 118 141
166 72 74 74 76 15 11 -71 -77 -147 -172 -180 -226 -29 -47 -12 -27 56 65 34
47 101 123 147 169 47 46 79 80 71 76 -12 -8 -12 -6 0 8 15 19 26 23 15 6 -4
-7 -1 -10 7 -7 8 3 14 10 14 16 0 5 4 14 9 19 6 5 6 2 1 -6 -6 -11 -4 -13 11
-6 10 4 30 8 44 9 23 1 25 -3 28 -46 3 -51 -24 -213 -88 -532 -22 -110 -40
-207 -39 -215 1 -21 60 263 104 502 37 198 43 284 23 307 -11 11 -9 11 6 0 17
-13 18 -24 13 -100 -3 -47 -66 -386 -139 -755 -125 -634 -132 -676 -132 -790
-1 -151 19 -206 102 -297 32 -34 50 -58 42 -53 -13 8 -13 7 -1 -8 15 -19 36
-23 25 -5 -4 7 -3 8 5 4 6 -4 9 -12 5 -17 -6 -10 104 -65 112 -56 3 2 -9 9
-25 15 -17 6 -31 13 -31 16 0 2 25 -4 55 -15 89 -31 85 -34 105 81 18 100 32
162 36 157 3 -3 -14 -105 -41 -237 -4 -22 -3 -22 5 -5 13 28 51 237 44 244 -5
6 -10 7 -36 10 -10 1 -10 3 0 10 10 6 5 12 -18 21 -17 7 -42 27 -57 44 -18 21
-24 25 -20 11 7 -19 6 -19 -7 -2 -18 24 -29 96 -21 144 4 21 70 364 148 763
177 913 181 963 85 1078 l-40 47 45 -47 c43 -46 49 -60 76 -178 l10 -45 -5 45
c-9 88 -26 130 -72 181 -27 30 -50 48 -59 45 -8 -3 -11 -1 -8 4 17 28 -120 39
-186 15z"/>
<path d="M10011 4483 c-60 -219 -214 -592 -348 -838 -188 -347 -434 -696 -653
-925 -54 -58 -48 -49 27 39 117 136 241 293 326 416 104 149 267 415 254 415
-2 0 -28 -42 -58 -92 -67 -117 -213 -338 -292 -443 -249 -330 -628 -709 -944
-944 -40 -29 -70 -57 -68 -61 3 -5 -9 -18 -27 -30 l-33 -22 30 26 c17 14 26
26 22 26 -14 0 -66 -43 -61 -51 2 -4 -1 -11 -7 -15 -8 -5 -9 -3 -4 6 5 8 3 11
-6 8 -8 -3 -13 -10 -12 -16 2 -6 -16 -24 -40 -40 -54 -37 -67 -44 -67 -39 0 3
23 19 50 37 28 18 49 35 46 37 -7 7 -116 -69 -111 -78 3 -4 0 -11 -6 -15 -8
-4 -9 -3 -5 4 4 7 5 12 3 12 -3 0 -69 -38 -148 -85 -290 -173 -608 -316 -954
-431 -104 -35 -185 -63 -178 -64 6 0 72 20 147 44 75 24 136 40 136 36 0 -3
-48 -21 -107 -40 -60 -18 -126 -38 -148 -45 -22 -7 -105 -29 -185 -48 -797
-195 -1578 -195 -2378 -1 -79 19 -162 41 -185 48 -23 8 -90 28 -149 46 -60 19
-108 37 -108 40 0 4 61 -12 136 -36 75 -24 141 -44 147 -44 7 1 -73 29 -178
64 -346 115 -664 258 -954 431 -79 47 -145 85 -148 85 -2 0 -1 -5 3 -12 4 -7
3 -8 -5 -4 -6 4 -9 11 -6 15 5 9 -104 85 -111 78 -3 -2 18 -19 46 -37 27 -18
50 -34 50 -37 0 -5 -13 2 -67 39 -24 16 -42 34 -40 40 1 6 -4 13 -12 16 -9 3
-11 0 -6 -8 5 -9 4 -11 -4 -6 -6 4 -9 11 -7 15 5 8 -47 51 -61 51 -4 0 6 -12
22 -26 l30 -26 -33 22 c-18 12 -30 25 -27 30 2 4 -28 32 -68 61 -327 243 -720
639 -961 969 -38 52 -78 105 -89 116 l-19 22 -61 -25 c-34 -14 -72 -28 -84
-31 -13 -4 -24 -11 -25 -17 -3 -18 -23 -33 -33 -27 -24 14 226 -315 338 -447
119 -139 344 -368 483 -492 106 -94 143 -121 113 -81 -7 9 -1 6 14 -7 30 -27
37 -41 10 -20 -10 7 -7 1 6 -14 27 -30 52 -38 30 -9 -11 14 -10 13 9 -2 24
-21 29 -31 10 -20 -7 4 -4 -2 6 -14 23 -26 44 -30 25 -4 -11 14 -10 13 9 -2
24 -21 29 -32 10 -20 -9 5 -9 2 1 -9 14 -18 36 -24 26 -7 -10 16 1 11 16 -7
12 -15 12 -16 -1 -8 -9 5 -8 0 4 -13 23 -26 45 -30 25 -4 -13 15 -12 16 4 3 9
-8 15 -16 12 -19 -7 -7 15 -32 27 -32 6 0 4 8 -3 18 -11 15 -11 15 1 4 8 -7
15 -18 15 -24 0 -6 6 -13 14 -16 8 -3 11 0 7 7 -11 17 0 13 15 -6 12 -15 12
-16 -1 -8 -13 8 -13 7 -1 -8 16 -20 36 -23 25 -4 -4 7 -3 9 2 4 5 -5 9 -14 9
-19 0 -6 6 -13 14 -16 8 -3 11 0 7 7 -11 17 0 13 15 -6 12 -15 12 -16 -1 -8
-13 8 -13 7 -1 -8 16 -20 36 -23 25 -4 -4 7 -3 9 2 4 5 -5 9 -14 9 -19 0 -6 6
-13 14 -16 9 -3 11 0 6 9 -5 8 -4 11 1 6 5 -5 9 -14 9 -19 0 -6 6 -13 14 -16
9 -3 11 0 6 9 -5 8 -4 11 1 6 5 -5 9 -14 9 -19 0 -6 6 -13 14 -16 9 -3 11 0 6
9 -5 8 -4 11 1 6 5 -5 9 -14 9 -19 0 -6 6 -13 14 -16 9 -3 11 0 6 8 -5 9 -4
11 4 6 6 -4 9 -11 6 -16 -3 -5 3 -14 14 -19 26 -14 34 -14 25 2 -4 7 -3 9 2 4
5 -5 9 -14 9 -19 0 -6 6 -13 14 -16 9 -3 11 0 6 8 -5 9 -4 11 4 6 6 -4 9 -11
6 -16 -3 -5 3 -14 14 -19 26 -14 34 -14 25 1 -4 7 -3 8 5 4 6 -4 9 -11 6 -16
-3 -5 3 -14 14 -19 26 -14 34 -14 25 1 -4 7 -3 8 5 4 6 -4 9 -11 6 -16 -3 -5
8 -16 24 -25 36 -18 45 -19 35 -3 -4 7 -3 8 5 4 6 -4 9 -11 6 -16 -3 -5 52
-39 122 -76 247 -131 576 -268 863 -358 133 -42 454 -123 520 -131 25 -3 -25
11 -110 31 -184 42 -461 121 -474 134 -5 5 27 -3 70 -16 294 -94 667 -168
1034 -206 167 -17 773 -17 940 0 367 38 740 112 1034 206 43 13 75 21 70 16
-13 -13 -290 -92 -474 -134 -85 -20 -135 -34 -110 -31 66 8 387 89 520 131
287 90 616 227 863 358 70 37 125 71 122 76 -3 5 0 12 6 16 8 4 9 3 5 -4 -10
-16 -1 -15 35 3 16 9 27 20 24 25 -3 5 0 12 6 16 8 4 9 3 5 -4 -9 -15 -1 -15
25 -1 11 5 17 14 14 19 -3 5 0 12 6 16 8 4 9 3 5 -4 -9 -15 -1 -15 25 -1 11 5
17 14 14 19 -3 5 0 12 6 16 8 5 9 3 4 -6 -5 -8 -3 -11 6 -8 8 3 14 10 14 16 0
5 4 14 9 19 5 5 6 3 2 -4 -9 -16 -1 -16 25 -2 11 5 17 14 14 19 -3 5 0 12 6
16 8 5 9 3 4 -6 -5 -8 -3 -11 6 -8 8 3 14 10 14 16 0 5 4 14 9 19 5 5 6 2 1
-6 -5 -9 -3 -12 6 -9 8 3 14 10 14 16 0 5 4 14 9 19 5 5 6 2 1 -6 -5 -9 -3
-12 6 -9 8 3 14 10 14 16 0 5 4 14 9 19 5 5 6 2 1 -6 -5 -9 -3 -12 6 -9 8 3
14 10 14 16 0 5 4 14 9 19 5 5 6 3 2 -4 -11 -19 9 -16 25 4 12 15 12 16 -1 8
-13 -8 -13 -7 -1 8 15 19 26 23 15 6 -4 -7 -1 -10 7 -7 8 3 14 10 14 16 0 5 4
14 9 19 5 5 6 3 2 -4 -11 -19 9 -16 25 4 12 15 12 16 -1 8 -13 -8 -13 -7 -1 8
15 19 26 23 15 6 -4 -7 -1 -10 7 -7 8 3 14 10 14 16 0 6 7 17 15 24 12 11 12
11 1 -4 -7 -10 -9 -18 -3 -18 12 0 34 25 27 32 -3 3 3 11 12 19 16 13 17 12 4
-3 -20 -26 2 -22 25 4 12 13 13 18 4 13 -13 -8 -13 -7 -1 8 15 18 26 23 16 7
-10 -17 12 -11 26 7 12 15 12 16 -1 8 -9 -5 -8 0 4 13 21 25 36 31 16 7 -20
-24 5 -17 26 7 12 13 13 18 4 13 -9 -5 -8 0 4 13 21 25 36 31 16 7 -22 -27 6
-16 31 12 18 21 19 24 4 13 -15 -11 -14 -8 4 13 25 28 43 38 21 12 -33 -39 12
-6 114 84 136 121 361 350 480 489 128 149 328 419 427 579 96 153 153 253
146 253 -2 0 -26 -37 -52 -82 -67 -116 -194 -316 -205 -323 -5 -3 26 50 69
117 227 355 402 721 532 1108 27 80 49 138 49 130 0 -9 -18 -69 -40 -135 -22
-65 -38 -120 -36 -122 6 -7 88 246 84 259 -2 6 -20 18 -39 25 -33 13 -33 13
-4 9 29 -5 29 -5 -5 10 -19 9 -49 26 -66 39 -17 13 -42 27 -55 30 -23 5 -25 1
-48 -82z"/>
<path d="M9242 2110 c1 -3 -2 -13 -6 -22 -4 -9 -3 -65 3 -125 6 -59 14 -180
17 -268 2 -88 7 -175 9 -193 3 -23 0 -30 -8 -26 -7 4 -1 -4 12 -19 22 -24 35
-26 66 -8 6 3 2 -2 -8 -11 -11 -10 -15 -18 -10 -18 11 0 61 41 175 143 l78 69
37 -31 c21 -17 42 -31 48 -31 14 1 82 60 69 60 -6 0 -21 -11 -34 -25 -27 -29
-42 -31 -61 -8 -13 15 -12 15 8 2 21 -12 25 -11 58 21 19 19 35 40 35 47 0 7
-15 26 -32 42 l-33 29 23 24 c27 29 28 45 5 72 -18 21 -18 21 5 2 27 -24 28
-47 2 -71 -11 -10 -20 -22 -20 -27 0 -5 11 4 25 20 32 38 31 52 -4 86 -36 35
-69 39 -98 13 l-22 -19 -152 140 c-88 81 -159 140 -170 139 -10 -1 -17 -4 -17
-7z"/>
<path d="M8875 1759 c17 -8 16 -9 -7 -6 -15 2 -25 1 -23 -3 3 -5 -2 -11 -11
-14 -10 -4 -13 -2 -8 6 9 14 -8 5 -55 -30 -35 -26 -91 -106 -91 -131 0 -8 11
8 25 36 14 28 35 59 47 69 17 15 16 12 -5 -17 -38 -50 -57 -102 -57 -151 0
-44 29 -120 49 -133 7 -3 9 -15 6 -26 -4 -11 -2 -19 5 -19 6 0 9 -4 6 -9 -4
-5 -1 -20 4 -33 10 -22 10 -22 5 5 -3 16 -1 27 5 27 6 0 8 6 4 13 -5 8 -3 8 9
-2 9 -7 14 -17 12 -22 -3 -4 3 -13 14 -18 29 -16 38 -13 15 3 -16 13 -11 12
26 0 52 -18 123 -14 169 11 38 19 41 11 4 -10 -27 -15 -19 -15 19 0 15 6 17
-2 20 -72 2 -61 6 -78 18 -78 8 0 15 -6 15 -14 0 -23 20 -23 46 -1 13 12 18
19 12 15 -18 -9 -16 0 4 16 11 10 14 10 9 2 -11 -19 5 -15 28 6 20 19 21 26
13 113 -23 280 -24 288 -65 372 -3 5 2 5 9 1 8 -4 -2 9 -21 29 -19 21 -52 46
-72 57 -44 23 -64 25 -28 3 17 -11 19 -13 5 -9 -21 7 -51 11 -130 19 -36 3
-44 2 -30 -5z m143 -153 c32 -30 37 -40 37 -80 0 -37 -5 -51 -29 -73 -16 -16
-25 -22 -21 -14 7 11 4 13 -11 6 -10 -4 -35 -11 -54 -16 -33 -8 -32 -8 10 -5
37 3 41 2 23 -6 -24 -11 -89 -3 -98 12 -4 6 2 7 12 3 10 -3 16 -4 13 -2 -3 2
-18 15 -35 29 -16 14 -24 18 -17 10 6 -8 12 -19 12 -24 0 -6 -10 4 -21 22 -25
38 -27 92 -5 124 9 12 16 17 16 11 0 -7 -4 -15 -10 -18 -5 -3 -10 -11 -10 -18
0 -6 8 0 17 13 10 14 18 28 18 32 0 3 4 10 9 15 5 4 7 3 3 -3 -4 -7 11 -9 48
-6 50 4 57 2 85 -26 16 -17 30 -27 30 -23 0 19 -54 55 -93 62 l-42 6 38 2 c30
1 45 -6 75 -33z"/>
<path d="M8579 1476 c-2 -2 -43 -6 -91 -9 -51 -2 -95 -10 -105 -18 -41 -30
-92 -83 -88 -90 3 -4 -2 -23 -10 -43 -37 -87 -8 -195 68 -262 23 -20 33 -32
22 -26 -22 11 -63 54 -88 92 -10 13 -17 19 -17 13 0 -6 21 -35 48 -63 37 -41
55 -52 87 -57 61 -9 127 -9 160 0 23 6 26 5 15 -3 -12 -9 -11 -10 8 -5 18 5
22 2 23 -17 1 -13 5 -6 9 17 4 22 5 -11 3 -72 -2 -62 -1 -113 2 -113 3 0 18 7
33 16 25 15 25 15 8 0 -31 -25 -5 -19 37 9 43 30 50 43 10 19 -27 -16 -27 -16
2 9 16 14 32 24 35 22 3 -2 5 88 5 198 0 188 -2 205 -22 242 -11 22 -35 53
-52 69 -17 16 -28 33 -25 37 2 4 -4 13 -15 18 -29 16 -38 13 -15 -4 17 -13 16
-13 -13 -3 -22 8 -28 15 -20 20 7 5 8 8 1 8 -6 0 -13 -2 -15 -4z m-44 -137
c-17 -8 -16 -9 8 -5 15 2 25 1 22 -2 -3 -3 5 -16 17 -29 12 -13 25 -42 29 -66
6 -40 7 -40 8 -8 0 19 -8 49 -20 67 -11 19 -18 34 -16 34 12 0 47 -70 47 -94
0 -94 -118 -150 -189 -91 -55 47 -64 132 -19 171 12 11 18 13 13 5 -5 -9 -4
-12 4 -10 7 3 12 8 11 13 -3 15 24 26 65 25 33 0 36 -2 20 -10z"/>
<path d="M8019 1230 c-83 -42 -103 -60 -96 -87 4 -14 5 -14 6 4 2 32 16 36 17
5 0 -15 4 -36 9 -46 7 -15 5 -18 -6 -11 -8 5 -11 5 -6 -1 5 -5 14 -9 20 -9 7
0 12 -6 12 -14 0 -8 7 -16 15 -18 12 -4 12 -3 2 5 -11 7 -9 10 7 15 12 3 19 1
15 -4 -3 -5 2 -6 10 -3 9 3 13 10 10 15 -3 5 2 6 11 3 9 -4 25 -24 36 -45 11
-22 22 -39 25 -39 3 0 -6 21 -20 47 -15 25 -24 48 -22 51 9 8 67 -119 60 -130
-4 -7 -3 -8 4 -4 14 8 76 -110 66 -126 -4 -7 -3 -8 4 -4 14 8 86 -130 76 -146
-4 -6 -3 -8 3 -5 5 3 17 -3 26 -13 11 -13 12 -20 4 -24 -7 -2 2 -3 18 -2 77 7
107 53 75 117 -12 22 -18 45 -14 51 4 7 3 8 -4 4 -14 -8 -56 70 -46 86 4 6 3
8 -3 5 -13 -8 -197 319 -188 333 4 6 3 10 -2 9 -4 -1 -19 0 -33 1 l-25 2 25 8
c20 6 21 8 5 9 -11 0 -54 -17 -96 -39z"/>
<path d="M7600 984 c-14 -8 -34 -12 -45 -10 -11 3 -27 1 -35 -5 -11 -8 -9 -9
10 -4 52 13 -7 -14 -134 -60 -71 -25 -136 -43 -145 -40 -8 3 -12 3 -8 -1 4 -4
2 -13 -4 -20 -14 -17 -2 -74 17 -81 8 -3 46 6 84 19 61 22 70 23 75 9 43 -108
144 -419 140 -430 -3 -9 -3 -12 1 -9 7 8 34 -14 28 -23 -5 -9 29 -8 56 2 16 6
27 18 28 32 1 12 -35 125 -79 250 -45 125 -80 229 -78 230 2 2 33 14 69 28 65
25 65 25 64 63 -1 25 2 33 7 25 15 -25 9 -58 -13 -73 -12 -9 -18 -16 -12 -16
17 0 44 35 44 56 0 25 -16 49 -32 49 -7 1 -12 6 -10 13 1 7 1 12 0 11 -2 -1
-14 -7 -28 -15z"/>
<path d="M6966 775 c-40 -31 -42 -35 -52 -118 -8 -62 0 -89 38 -134 21 -24 24
-31 9 -18 -13 11 -32 34 -42 50 -11 17 -19 25 -19 18 0 -16 57 -81 83 -94 14
-8 18 -8 13 0 -5 8 0 8 16 2 13 -5 57 -14 98 -21 41 -6 80 -17 85 -23 6 -7 19
-19 30 -27 20 -15 20 -15 1 8 -16 18 -16 22 -4 17 9 -4 22 -20 28 -36 29 -68
-39 -118 -150 -110 -20 1 -22 3 -10 11 11 7 11 10 2 10 -7 0 -24 8 -39 17 -14
10 -34 18 -43 20 -24 3 -84 -61 -76 -82 3 -9 10 -14 14 -11 5 3 20 -7 33 -22
l24 -27 -25 20 c-20 17 -22 17 -11 2 15 -19 58 -46 48 -30 -3 5 26 1 66 -9 71
-18 125 -23 77 -8 l-25 8 25 1 c14 1 43 8 65 16 35 12 38 12 21 -1 -11 -7 -15
-14 -9 -14 36 0 144 112 143 149 -1 9 -8 0 -16 -19 -17 -39 -49 -76 -78 -92
-11 -6 -1 7 21 28 63 60 74 140 29 209 -9 13 -16 28 -16 32 0 4 12 -10 25 -32
14 -22 25 -35 25 -29 0 16 -58 94 -71 94 -5 0 -7 -6 -3 -12 4 -8 3 -10 -2 -5
-5 5 -9 14 -9 19 0 6 -6 13 -14 16 -8 3 -11 0 -7 -7 5 -8 0 -8 -17 -2 -14 6
-54 15 -89 21 -83 14 -99 20 -93 30 3 4 -5 10 -16 13 -18 5 -21 12 -17 41 2
19 0 32 -4 30 -14 -9 -9 -57 9 -76 20 -22 11 -24 -11 -2 -19 18 -21 70 -3 81
6 4 21 6 32 5 17 -2 17 -1 5 7 -12 8 -8 11 18 11 17 0 32 -3 32 -7 0 -5 15
-16 32 -26 31 -18 33 -18 43 -2 5 10 17 25 25 34 8 9 12 12 8 7 -5 -6 -8 -14
-8 -20 0 -5 6 -1 14 9 12 17 12 23 0 47 -9 17 -10 29 -4 33 6 3 10 11 10 16 0
6 -7 3 -16 -5 -8 -9 -20 -14 -25 -11 -14 9 -11 17 4 9 9 -5 9 -4 1 5 -8 8 -45
13 -100 14 -85 2 -91 1 -128 -28z"/>
<path d="M6690 710 c18 -5 -11 -13 -97 -30 -68 -12 -127 -28 -133 -35 -7 -8 1
-101 25 -296 20 -156 37 -289 37 -295 1 -7 13 -8 37 -2 20 5 110 24 200 43 90
19 168 40 172 47 4 6 6 26 3 43 -4 25 -3 27 6 10 9 -19 10 -19 7 -1 -3 29 -43
30 -177 1 -117 -24 -171 -31 -120 -15 24 8 24 8 3 9 -31 1 -33 47 -3 54 17 4
16 4 -2 3 -19 -1 -24 -8 -28 -46 l-6 -45 -4 47 -5 47 65 14 c36 8 91 21 122
27 64 15 76 30 57 76 -7 16 -12 31 -11 34 0 3 -14 6 -31 7 -23 1 -27 -1 -13
-6 14 -5 -5 -13 -65 -25 -46 -10 -92 -20 -103 -23 -11 -3 -16 -1 -12 5 3 6 2
13 -4 17 -5 3 -10 -2 -10 -11 0 -10 -2 -15 -5 -13 -7 8 -36 222 -30 227 3 3 5
-2 5 -10 0 -12 6 -15 22 -10 21 5 21 6 2 12 -14 5 -3 11 41 20 33 6 87 19 120
27 33 8 65 15 71 15 9 1 9 12 0 42 l-12 41 -74 1 c-41 0 -64 -3 -50 -6z"/>
<path d="M7764 539 c-22 -24 -20 -75 3 -101 22 -25 90 -28 111 -4 9 11 11 16
5 12 -10 -5 -11 1 -7 23 7 36 -4 54 -49 76 -39 19 -40 19 -63 -6z"/>
</g>
</svg>
